<mxfile host="app.diagrams.net" agent="Mozilla/5.0 (Windows NT 10.0; Win64; x64) AppleWebKit/537.36 (KHTML, like Gecko) Chrome/131.0.0.0 Safari/537.36" version="24.9.1">
  <diagram name="Page-1" id="MLt4Ewxwmtp9BDQufVcR">
    <mxGraphModel dx="3092" dy="2404" grid="1" gridSize="10" guides="1" tooltips="1" connect="1" arrows="1" fold="1" page="1" pageScale="1" pageWidth="850" pageHeight="1100" math="0" shadow="0">
      <root>
        <mxCell id="0" />
        <mxCell id="1" parent="0" />
        <mxCell id="QAyq8AawGoxaaEf4JyG8-1" value="Pemanis_Lapi&amp;nbsp;" style="ellipse;whiteSpace=wrap;html=1;align=center;newEdgeStyle={&quot;edgeStyle&quot;:&quot;entityRelationEdgeStyle&quot;,&quot;startArrow&quot;:&quot;none&quot;,&quot;endArrow&quot;:&quot;none&quot;,&quot;segment&quot;:10,&quot;curved&quot;:1,&quot;sourcePerimeterSpacing&quot;:0,&quot;targetPerimeterSpacing&quot;:0};treeFolding=1;treeMoving=1;" vertex="1" parent="1">
          <mxGeometry x="230" y="-410" width="100" height="40" as="geometry" />
        </mxCell>
        <mxCell id="QAyq8AawGoxaaEf4JyG8-3" value="" style="edgeStyle=entityRelationEdgeStyle;startArrow=none;endArrow=none;segment=10;curved=1;sourcePerimeterSpacing=0;targetPerimeterSpacing=0;rounded=0;exitX=1;exitY=0.5;exitDx=0;exitDy=0;" edge="1" parent="1" source="QAyq8AawGoxaaEf4JyG8-1">
          <mxGeometry relative="1" as="geometry">
            <mxPoint x="460" y="-380" as="sourcePoint" />
            <mxPoint x="380" y="-405" as="targetPoint" />
            <Array as="points">
              <mxPoint x="460" y="-370" />
              <mxPoint x="410" y="-380" />
            </Array>
          </mxGeometry>
        </mxCell>
        <mxCell id="QAyq8AawGoxaaEf4JyG8-8" value="Data Rekanan&amp;nbsp;" style="whiteSpace=wrap;html=1;rounded=1;arcSize=50;align=center;verticalAlign=middle;strokeWidth=1;autosize=1;spacing=4;treeFolding=1;treeMoving=1;newEdgeStyle={&quot;edgeStyle&quot;:&quot;entityRelationEdgeStyle&quot;,&quot;startArrow&quot;:&quot;none&quot;,&quot;endArrow&quot;:&quot;none&quot;,&quot;segment&quot;:10,&quot;curved&quot;:1,&quot;sourcePerimeterSpacing&quot;:0,&quot;targetPerimeterSpacing&quot;:0};" vertex="1" parent="1">
          <mxGeometry x="555" y="-600" width="120" height="30" as="geometry" />
        </mxCell>
        <mxCell id="QAyq8AawGoxaaEf4JyG8-9" value="" style="edgeStyle=entityRelationEdgeStyle;startArrow=none;endArrow=none;segment=10;curved=1;sourcePerimeterSpacing=0;targetPerimeterSpacing=0;rounded=0;exitX=0.664;exitY=0.106;exitDx=0;exitDy=0;exitPerimeter=0;" edge="1" target="QAyq8AawGoxaaEf4JyG8-8" parent="1" source="QAyq8AawGoxaaEf4JyG8-25">
          <mxGeometry relative="1" as="geometry">
            <mxPoint x="557.8699999999999" y="-420.5999999999999" as="sourcePoint" />
            <Array as="points">
              <mxPoint x="550" y="-420" />
              <mxPoint x="610" y="-490" />
              <mxPoint x="600" y="-480" />
              <mxPoint x="590" y="-460" />
              <mxPoint x="560" y="-460" />
              <mxPoint x="550" y="-460" />
            </Array>
          </mxGeometry>
        </mxCell>
        <mxCell id="QAyq8AawGoxaaEf4JyG8-10" value="Data Kontrak" style="whiteSpace=wrap;html=1;rounded=1;arcSize=50;align=center;verticalAlign=middle;strokeWidth=1;autosize=1;spacing=4;treeFolding=1;treeMoving=1;newEdgeStyle={&quot;edgeStyle&quot;:&quot;entityRelationEdgeStyle&quot;,&quot;startArrow&quot;:&quot;none&quot;,&quot;endArrow&quot;:&quot;none&quot;,&quot;segment&quot;:10,&quot;curved&quot;:1,&quot;sourcePerimeterSpacing&quot;:0,&quot;targetPerimeterSpacing&quot;:0};" vertex="1" parent="1">
          <mxGeometry x="350" y="-595" width="110" height="30" as="geometry" />
        </mxCell>
        <mxCell id="QAyq8AawGoxaaEf4JyG8-13" value="" style="edgeStyle=entityRelationEdgeStyle;startArrow=none;endArrow=none;segment=10;curved=1;sourcePerimeterSpacing=0;targetPerimeterSpacing=0;rounded=0;entryX=1;entryY=0.5;entryDx=0;entryDy=0;exitX=0.626;exitY=0.118;exitDx=0;exitDy=0;exitPerimeter=0;" edge="1" target="QAyq8AawGoxaaEf4JyG8-10" parent="1" source="QAyq8AawGoxaaEf4JyG8-25">
          <mxGeometry relative="1" as="geometry">
            <mxPoint x="450" y="-420" as="sourcePoint" />
            <mxPoint x="350.3333333333335" y="-469.6666666666665" as="targetPoint" />
            <Array as="points">
              <mxPoint x="460" y="-450" />
              <mxPoint x="480" y="-520" />
            </Array>
          </mxGeometry>
        </mxCell>
        <mxCell id="QAyq8AawGoxaaEf4JyG8-14" value="Data Verifikasi" style="whiteSpace=wrap;html=1;rounded=1;arcSize=50;align=center;verticalAlign=middle;strokeWidth=1;autosize=1;spacing=4;treeFolding=1;treeMoving=1;newEdgeStyle={&quot;edgeStyle&quot;:&quot;entityRelationEdgeStyle&quot;,&quot;startArrow&quot;:&quot;none&quot;,&quot;endArrow&quot;:&quot;none&quot;,&quot;segment&quot;:10,&quot;curved&quot;:1,&quot;sourcePerimeterSpacing&quot;:0,&quot;targetPerimeterSpacing&quot;:0};" vertex="1" parent="1">
          <mxGeometry x="560" y="-480" width="120" height="30" as="geometry" />
        </mxCell>
        <mxCell id="QAyq8AawGoxaaEf4JyG8-15" value="" style="edgeStyle=entityRelationEdgeStyle;startArrow=none;endArrow=none;segment=10;curved=1;sourcePerimeterSpacing=0;targetPerimeterSpacing=0;rounded=0;exitX=1;exitY=1;exitDx=0;exitDy=0;" edge="1" target="QAyq8AawGoxaaEf4JyG8-14" parent="1" source="QAyq8AawGoxaaEf4JyG8-25">
          <mxGeometry relative="1" as="geometry">
            <mxPoint x="588.6500000000001" y="-398.28" as="sourcePoint" />
          </mxGeometry>
        </mxCell>
        <mxCell id="QAyq8AawGoxaaEf4JyG8-19" value="Data Pengadaan" style="whiteSpace=wrap;html=1;rounded=1;arcSize=50;align=center;verticalAlign=middle;strokeWidth=1;autosize=1;spacing=4;treeFolding=1;treeMoving=1;newEdgeStyle={&quot;edgeStyle&quot;:&quot;entityRelationEdgeStyle&quot;,&quot;startArrow&quot;:&quot;none&quot;,&quot;endArrow&quot;:&quot;none&quot;,&quot;segment&quot;:10,&quot;curved&quot;:1,&quot;sourcePerimeterSpacing&quot;:0,&quot;targetPerimeterSpacing&quot;:0};" vertex="1" parent="1">
          <mxGeometry x="580" y="-270" width="130" height="30" as="geometry" />
        </mxCell>
        <mxCell id="QAyq8AawGoxaaEf4JyG8-20" value="" style="edgeStyle=entityRelationEdgeStyle;startArrow=none;endArrow=none;segment=10;curved=1;sourcePerimeterSpacing=0;targetPerimeterSpacing=0;rounded=0;entryX=0;entryY=0.5;entryDx=0;entryDy=0;" edge="1" target="QAyq8AawGoxaaEf4JyG8-19" parent="1" source="QAyq8AawGoxaaEf4JyG8-25">
          <mxGeometry relative="1" as="geometry">
            <mxPoint x="588.47" y="-397.1999999999998" as="sourcePoint" />
            <Array as="points">
              <mxPoint x="590" y="-400" />
            </Array>
          </mxGeometry>
        </mxCell>
        <mxCell id="QAyq8AawGoxaaEf4JyG8-21" value="Data Negosiasi" style="whiteSpace=wrap;html=1;rounded=1;arcSize=50;align=center;verticalAlign=middle;strokeWidth=1;autosize=1;spacing=4;treeFolding=1;treeMoving=1;newEdgeStyle={&quot;edgeStyle&quot;:&quot;entityRelationEdgeStyle&quot;,&quot;startArrow&quot;:&quot;none&quot;,&quot;endArrow&quot;:&quot;none&quot;,&quot;segment&quot;:10,&quot;curved&quot;:1,&quot;sourcePerimeterSpacing&quot;:0,&quot;targetPerimeterSpacing&quot;:0};" vertex="1" parent="1">
          <mxGeometry x="430" y="-190" width="130" height="30" as="geometry" />
        </mxCell>
        <mxCell id="QAyq8AawGoxaaEf4JyG8-22" value="" style="edgeStyle=entityRelationEdgeStyle;startArrow=none;endArrow=none;segment=10;curved=1;sourcePerimeterSpacing=0;targetPerimeterSpacing=0;rounded=0;entryX=0.75;entryY=0;entryDx=0;entryDy=0;exitX=0.704;exitY=1.207;exitDx=0;exitDy=0;exitPerimeter=0;" edge="1" target="QAyq8AawGoxaaEf4JyG8-21" parent="1" source="QAyq8AawGoxaaEf4JyG8-25">
          <mxGeometry relative="1" as="geometry">
            <mxPoint x="479" y="-424" as="sourcePoint" />
            <Array as="points">
              <mxPoint x="505" y="-360" />
            </Array>
          </mxGeometry>
        </mxCell>
        <mxCell id="QAyq8AawGoxaaEf4JyG8-23" value="Data Blanket" style="whiteSpace=wrap;html=1;rounded=1;arcSize=50;align=center;verticalAlign=middle;strokeWidth=1;autosize=1;spacing=4;treeFolding=1;treeMoving=1;newEdgeStyle={&quot;edgeStyle&quot;:&quot;entityRelationEdgeStyle&quot;,&quot;startArrow&quot;:&quot;none&quot;,&quot;endArrow&quot;:&quot;none&quot;,&quot;segment&quot;:10,&quot;curved&quot;:1,&quot;sourcePerimeterSpacing&quot;:0,&quot;targetPerimeterSpacing&quot;:0};" vertex="1" parent="1">
          <mxGeometry x="330" y="-320" width="110" height="30" as="geometry" />
        </mxCell>
        <mxCell id="QAyq8AawGoxaaEf4JyG8-24" value="" style="edgeStyle=entityRelationEdgeStyle;startArrow=none;endArrow=none;segment=10;curved=1;sourcePerimeterSpacing=0;targetPerimeterSpacing=0;rounded=0;exitX=0.62;exitY=1.137;exitDx=0;exitDy=0;exitPerimeter=0;entryX=0.924;entryY=0.093;entryDx=0;entryDy=0;entryPerimeter=0;" edge="1" target="QAyq8AawGoxaaEf4JyG8-23" parent="1" source="QAyq8AawGoxaaEf4JyG8-25">
          <mxGeometry relative="1" as="geometry">
            <mxPoint x="350" y="-158" as="sourcePoint" />
          </mxGeometry>
        </mxCell>
        <mxCell id="QAyq8AawGoxaaEf4JyG8-25" value="Proses" style="whiteSpace=wrap;html=1;shape=partialRectangle;top=0;left=0;bottom=1;right=0;points=[[0,1],[1,1]];fillColor=none;align=center;verticalAlign=bottom;routingCenterY=0.5;snapToPoint=1;recursiveResize=0;autosize=1;treeFolding=1;treeMoving=1;newEdgeStyle={&quot;edgeStyle&quot;:&quot;entityRelationEdgeStyle&quot;,&quot;startArrow&quot;:&quot;none&quot;,&quot;endArrow&quot;:&quot;none&quot;,&quot;segment&quot;:10,&quot;curved&quot;:1,&quot;sourcePerimeterSpacing&quot;:0,&quot;targetPerimeterSpacing&quot;:0};strokeColor=default;labelBorderColor=none;" vertex="1" collapsed="1" parent="1">
          <mxGeometry x="460" y="-440" width="50" height="15" as="geometry" />
        </mxCell>
        <mxCell id="QAyq8AawGoxaaEf4JyG8-26" value="" style="edgeStyle=entityRelationEdgeStyle;startArrow=none;endArrow=none;segment=10;curved=1;sourcePerimeterSpacing=0;targetPerimeterSpacing=0;rounded=0;" edge="1" target="QAyq8AawGoxaaEf4JyG8-25" parent="1">
          <mxGeometry relative="1" as="geometry">
            <mxPoint x="380" y="-405" as="sourcePoint" />
          </mxGeometry>
        </mxCell>
        <mxCell id="QAyq8AawGoxaaEf4JyG8-28" value="Data Penagihan" style="whiteSpace=wrap;html=1;rounded=1;arcSize=50;align=center;verticalAlign=middle;strokeWidth=1;autosize=1;spacing=4;treeFolding=1;treeMoving=1;newEdgeStyle={&quot;edgeStyle&quot;:&quot;entityRelationEdgeStyle&quot;,&quot;startArrow&quot;:&quot;none&quot;,&quot;endArrow&quot;:&quot;none&quot;,&quot;segment&quot;:10,&quot;curved&quot;:1,&quot;sourcePerimeterSpacing&quot;:0,&quot;targetPerimeterSpacing&quot;:0};" vertex="1" parent="1">
          <mxGeometry x="150" y="-470" width="130" height="30" as="geometry" />
        </mxCell>
        <mxCell id="QAyq8AawGoxaaEf4JyG8-29" value="" style="edgeStyle=entityRelationEdgeStyle;startArrow=none;endArrow=none;segment=10;curved=1;sourcePerimeterSpacing=0;targetPerimeterSpacing=0;rounded=0;exitX=0.042;exitY=0.987;exitDx=0;exitDy=0;exitPerimeter=0;" edge="1" target="QAyq8AawGoxaaEf4JyG8-28" parent="1" source="QAyq8AawGoxaaEf4JyG8-25">
          <mxGeometry relative="1" as="geometry">
            <mxPoint x="460" y="-425" as="sourcePoint" />
          </mxGeometry>
        </mxCell>
        <mxCell id="QAyq8AawGoxaaEf4JyG8-34" value="PM" style="whiteSpace=wrap;html=1;shape=partialRectangle;top=0;left=0;bottom=1;right=0;points=[[0,1],[1,1]];fillColor=none;align=center;verticalAlign=bottom;routingCenterY=0.5;snapToPoint=1;recursiveResize=0;autosize=1;treeFolding=1;treeMoving=1;newEdgeStyle={&quot;edgeStyle&quot;:&quot;entityRelationEdgeStyle&quot;,&quot;startArrow&quot;:&quot;none&quot;,&quot;endArrow&quot;:&quot;none&quot;,&quot;segment&quot;:10,&quot;curved&quot;:1,&quot;sourcePerimeterSpacing&quot;:0,&quot;targetPerimeterSpacing&quot;:0};" vertex="1" parent="1">
          <mxGeometry x="695" y="-630" width="20" height="20" as="geometry" />
        </mxCell>
        <mxCell id="QAyq8AawGoxaaEf4JyG8-35" value="" style="edgeStyle=entityRelationEdgeStyle;startArrow=none;endArrow=none;segment=10;curved=1;sourcePerimeterSpacing=0;targetPerimeterSpacing=0;rounded=0;" edge="1" target="QAyq8AawGoxaaEf4JyG8-34" parent="1">
          <mxGeometry relative="1" as="geometry">
            <mxPoint x="660" y="-600" as="sourcePoint" />
          </mxGeometry>
        </mxCell>
        <mxCell id="QAyq8AawGoxaaEf4JyG8-44" value="" style="edgeStyle=entityRelationEdgeStyle;rounded=0;orthogonalLoop=1;jettySize=auto;html=1;startArrow=none;endArrow=none;segment=10;curved=1;sourcePerimeterSpacing=0;targetPerimeterSpacing=0;exitX=0.011;exitY=0.263;exitDx=0;exitDy=0;exitPerimeter=0;" edge="1" parent="1" source="QAyq8AawGoxaaEf4JyG8-43" target="QAyq8AawGoxaaEf4JyG8-34">
          <mxGeometry relative="1" as="geometry">
            <Array as="points">
              <mxPoint x="740" y="-640" />
              <mxPoint x="740" y="-640" />
            </Array>
          </mxGeometry>
        </mxCell>
        <mxCell id="QAyq8AawGoxaaEf4JyG8-43" value="Add Data Awal Proyek" style="whiteSpace=wrap;html=1;rounded=1;arcSize=50;align=center;verticalAlign=middle;strokeWidth=1;autosize=1;spacing=4;treeFolding=1;treeMoving=1;newEdgeStyle={&quot;edgeStyle&quot;:&quot;entityRelationEdgeStyle&quot;,&quot;startArrow&quot;:&quot;none&quot;,&quot;endArrow&quot;:&quot;none&quot;,&quot;segment&quot;:10,&quot;curved&quot;:1,&quot;sourcePerimeterSpacing&quot;:0,&quot;targetPerimeterSpacing&quot;:0};" vertex="1" parent="1">
          <mxGeometry x="770" y="-620.0023076923077" width="160" height="30" as="geometry" />
        </mxCell>
        <mxCell id="QAyq8AawGoxaaEf4JyG8-46" value="TIK" style="whiteSpace=wrap;html=1;shape=partialRectangle;top=0;left=0;bottom=1;right=0;points=[[0,1],[1,1]];fillColor=none;align=center;verticalAlign=bottom;routingCenterY=0.5;snapToPoint=1;recursiveResize=0;autosize=1;treeFolding=1;treeMoving=1;newEdgeStyle={&quot;edgeStyle&quot;:&quot;entityRelationEdgeStyle&quot;,&quot;startArrow&quot;:&quot;none&quot;,&quot;endArrow&quot;:&quot;none&quot;,&quot;segment&quot;:10,&quot;curved&quot;:1,&quot;sourcePerimeterSpacing&quot;:0,&quot;targetPerimeterSpacing&quot;:0};" vertex="1" parent="1">
          <mxGeometry x="690" y="-580" width="60" height="30" as="geometry" />
        </mxCell>
        <mxCell id="QAyq8AawGoxaaEf4JyG8-47" value="" style="edgeStyle=entityRelationEdgeStyle;startArrow=none;endArrow=none;segment=10;curved=1;sourcePerimeterSpacing=0;targetPerimeterSpacing=0;rounded=0;exitX=0.868;exitY=1.042;exitDx=0;exitDy=0;exitPerimeter=0;" edge="1" target="QAyq8AawGoxaaEf4JyG8-46" parent="1" source="QAyq8AawGoxaaEf4JyG8-8">
          <mxGeometry relative="1" as="geometry">
            <mxPoint x="690" y="-550" as="sourcePoint" />
          </mxGeometry>
        </mxCell>
        <mxCell id="QAyq8AawGoxaaEf4JyG8-48" value="Check Error And Entry Data awal Proyek" style="whiteSpace=wrap;html=1;rounded=1;arcSize=50;align=center;verticalAlign=middle;strokeWidth=1;autosize=1;spacing=4;treeFolding=1;treeMoving=1;newEdgeStyle={&quot;edgeStyle&quot;:&quot;entityRelationEdgeStyle&quot;,&quot;startArrow&quot;:&quot;none&quot;,&quot;endArrow&quot;:&quot;none&quot;,&quot;segment&quot;:10,&quot;curved&quot;:1,&quot;sourcePerimeterSpacing&quot;:0,&quot;targetPerimeterSpacing&quot;:0};" vertex="1" parent="1">
          <mxGeometry x="760" y="-565" width="260" height="30" as="geometry" />
        </mxCell>
        <mxCell id="QAyq8AawGoxaaEf4JyG8-49" value="" style="edgeStyle=entityRelationEdgeStyle;startArrow=none;endArrow=none;segment=10;curved=1;sourcePerimeterSpacing=0;targetPerimeterSpacing=0;rounded=0;exitX=1;exitY=1;exitDx=0;exitDy=0;" edge="1" target="QAyq8AawGoxaaEf4JyG8-48" parent="1" source="QAyq8AawGoxaaEf4JyG8-46">
          <mxGeometry relative="1" as="geometry">
            <mxPoint x="760" y="-510" as="sourcePoint" />
          </mxGeometry>
        </mxCell>
        <mxCell id="QAyq8AawGoxaaEf4JyG8-53" value="DI" style="whiteSpace=wrap;html=1;shape=partialRectangle;top=0;left=0;bottom=1;right=0;points=[[0,1],[1,1]];fillColor=none;align=center;verticalAlign=bottom;routingCenterY=0.5;snapToPoint=1;recursiveResize=0;autosize=1;treeFolding=1;treeMoving=1;newEdgeStyle={&quot;edgeStyle&quot;:&quot;entityRelationEdgeStyle&quot;,&quot;startArrow&quot;:&quot;none&quot;,&quot;endArrow&quot;:&quot;none&quot;,&quot;segment&quot;:10,&quot;curved&quot;:1,&quot;sourcePerimeterSpacing&quot;:0,&quot;targetPerimeterSpacing&quot;:0};" vertex="1" parent="1">
          <mxGeometry x="705" y="-520" width="50" height="30" as="geometry" />
        </mxCell>
        <mxCell id="QAyq8AawGoxaaEf4JyG8-54" value="" style="edgeStyle=entityRelationEdgeStyle;startArrow=none;endArrow=none;segment=10;curved=1;sourcePerimeterSpacing=0;targetPerimeterSpacing=0;rounded=0;" edge="1" target="QAyq8AawGoxaaEf4JyG8-53" parent="1">
          <mxGeometry relative="1" as="geometry">
            <mxPoint x="660" y="-480" as="sourcePoint" />
          </mxGeometry>
        </mxCell>
        <mxCell id="QAyq8AawGoxaaEf4JyG8-55" value="Check Kelengkapan Berkas dan Verifikasi" style="whiteSpace=wrap;html=1;rounded=1;arcSize=50;align=center;verticalAlign=middle;strokeWidth=1;autosize=1;spacing=4;treeFolding=1;treeMoving=1;newEdgeStyle={&quot;edgeStyle&quot;:&quot;entityRelationEdgeStyle&quot;,&quot;startArrow&quot;:&quot;none&quot;,&quot;endArrow&quot;:&quot;none&quot;,&quot;segment&quot;:10,&quot;curved&quot;:1,&quot;sourcePerimeterSpacing&quot;:0,&quot;targetPerimeterSpacing&quot;:0};" vertex="1" parent="1">
          <mxGeometry x="775" y="-500" width="270" height="30" as="geometry" />
        </mxCell>
        <mxCell id="QAyq8AawGoxaaEf4JyG8-56" value="" style="edgeStyle=entityRelationEdgeStyle;startArrow=none;endArrow=none;segment=10;curved=1;sourcePerimeterSpacing=0;targetPerimeterSpacing=0;rounded=0;entryX=0.001;entryY=0.376;entryDx=0;entryDy=0;entryPerimeter=0;" edge="1" target="QAyq8AawGoxaaEf4JyG8-55" parent="1">
          <mxGeometry relative="1" as="geometry">
            <mxPoint x="750" y="-490" as="sourcePoint" />
          </mxGeometry>
        </mxCell>
        <mxCell id="QAyq8AawGoxaaEf4JyG8-57" value="TIK" style="whiteSpace=wrap;html=1;shape=partialRectangle;top=0;left=0;bottom=1;right=0;points=[[0,1],[1,1]];fillColor=none;align=center;verticalAlign=bottom;routingCenterY=0.5;snapToPoint=1;recursiveResize=0;autosize=1;treeFolding=1;treeMoving=1;newEdgeStyle={&quot;edgeStyle&quot;:&quot;entityRelationEdgeStyle&quot;,&quot;startArrow&quot;:&quot;none&quot;,&quot;endArrow&quot;:&quot;none&quot;,&quot;segment&quot;:10,&quot;curved&quot;:1,&quot;sourcePerimeterSpacing&quot;:0,&quot;targetPerimeterSpacing&quot;:0};" vertex="1" parent="1">
          <mxGeometry x="700" y="-470" width="60" height="30" as="geometry" />
        </mxCell>
        <mxCell id="QAyq8AawGoxaaEf4JyG8-58" value="" style="edgeStyle=entityRelationEdgeStyle;startArrow=none;endArrow=none;segment=10;curved=1;sourcePerimeterSpacing=0;targetPerimeterSpacing=0;rounded=0;" edge="1" target="QAyq8AawGoxaaEf4JyG8-57" parent="1">
          <mxGeometry relative="1" as="geometry">
            <mxPoint x="660" y="-450" as="sourcePoint" />
          </mxGeometry>
        </mxCell>
        <mxCell id="QAyq8AawGoxaaEf4JyG8-59" value="Update Data ke Database berikutnya" style="whiteSpace=wrap;html=1;rounded=1;arcSize=50;align=center;verticalAlign=middle;strokeWidth=1;autosize=1;spacing=4;treeFolding=1;treeMoving=1;newEdgeStyle={&quot;edgeStyle&quot;:&quot;entityRelationEdgeStyle&quot;,&quot;startArrow&quot;:&quot;none&quot;,&quot;endArrow&quot;:&quot;none&quot;,&quot;segment&quot;:10,&quot;curved&quot;:1,&quot;sourcePerimeterSpacing&quot;:0,&quot;targetPerimeterSpacing&quot;:0};" vertex="1" parent="1">
          <mxGeometry x="775" y="-455" width="240" height="30" as="geometry" />
        </mxCell>
        <mxCell id="QAyq8AawGoxaaEf4JyG8-60" value="" style="edgeStyle=entityRelationEdgeStyle;startArrow=none;endArrow=none;segment=10;curved=1;sourcePerimeterSpacing=0;targetPerimeterSpacing=0;rounded=0;exitX=1;exitY=1;exitDx=0;exitDy=0;" edge="1" target="QAyq8AawGoxaaEf4JyG8-59" parent="1" source="QAyq8AawGoxaaEf4JyG8-57">
          <mxGeometry relative="1" as="geometry">
            <mxPoint x="765" y="-425" as="sourcePoint" />
          </mxGeometry>
        </mxCell>
        <mxCell id="QAyq8AawGoxaaEf4JyG8-62" value="Data Profil" style="whiteSpace=wrap;html=1;rounded=1;arcSize=50;align=center;verticalAlign=middle;strokeWidth=1;autosize=1;spacing=4;treeFolding=1;treeMoving=1;newEdgeStyle={&quot;edgeStyle&quot;:&quot;entityRelationEdgeStyle&quot;,&quot;startArrow&quot;:&quot;none&quot;,&quot;endArrow&quot;:&quot;none&quot;,&quot;segment&quot;:10,&quot;curved&quot;:1,&quot;sourcePerimeterSpacing&quot;:0,&quot;targetPerimeterSpacing&quot;:0};" vertex="1" parent="1">
          <mxGeometry x="720" y="-680" width="100" height="30" as="geometry" />
        </mxCell>
        <mxCell id="QAyq8AawGoxaaEf4JyG8-63" value="" style="edgeStyle=entityRelationEdgeStyle;startArrow=none;endArrow=none;segment=10;curved=1;sourcePerimeterSpacing=0;targetPerimeterSpacing=0;rounded=0;exitX=0.5;exitY=0;exitDx=0;exitDy=0;" edge="1" target="QAyq8AawGoxaaEf4JyG8-62" parent="1" source="QAyq8AawGoxaaEf4JyG8-8">
          <mxGeometry relative="1" as="geometry">
            <mxPoint x="655" y="-630" as="sourcePoint" />
          </mxGeometry>
        </mxCell>
        <mxCell id="QAyq8AawGoxaaEf4JyG8-64" value="Data Approval" style="whiteSpace=wrap;html=1;rounded=1;arcSize=50;align=center;verticalAlign=middle;strokeWidth=1;autosize=1;spacing=4;treeFolding=1;treeMoving=1;newEdgeStyle={&quot;edgeStyle&quot;:&quot;entityRelationEdgeStyle&quot;,&quot;startArrow&quot;:&quot;none&quot;,&quot;endArrow&quot;:&quot;none&quot;,&quot;segment&quot;:10,&quot;curved&quot;:1,&quot;sourcePerimeterSpacing&quot;:0,&quot;targetPerimeterSpacing&quot;:0};" vertex="1" parent="1">
          <mxGeometry x="770" y="-410" width="120" height="30" as="geometry" />
        </mxCell>
        <mxCell id="QAyq8AawGoxaaEf4JyG8-65" value="" style="edgeStyle=entityRelationEdgeStyle;startArrow=none;endArrow=none;segment=10;curved=1;sourcePerimeterSpacing=0;targetPerimeterSpacing=0;rounded=0;exitX=0.5;exitY=1;exitDx=0;exitDy=0;" edge="1" target="QAyq8AawGoxaaEf4JyG8-64" parent="1" source="QAyq8AawGoxaaEf4JyG8-14">
          <mxGeometry relative="1" as="geometry">
            <mxPoint x="650.0000000000001" y="-430.00000000000006" as="sourcePoint" />
            <Array as="points">
              <mxPoint x="690" y="-410" />
            </Array>
          </mxGeometry>
        </mxCell>
        <mxCell id="QAyq8AawGoxaaEf4JyG8-66" value="PM" style="whiteSpace=wrap;html=1;shape=partialRectangle;top=0;left=0;bottom=1;right=0;points=[[0,1],[1,1]];fillColor=none;align=center;verticalAlign=bottom;routingCenterY=0.5;snapToPoint=1;recursiveResize=0;autosize=1;treeFolding=1;treeMoving=1;newEdgeStyle={&quot;edgeStyle&quot;:&quot;entityRelationEdgeStyle&quot;,&quot;startArrow&quot;:&quot;none&quot;,&quot;endArrow&quot;:&quot;none&quot;,&quot;segment&quot;:10,&quot;curved&quot;:1,&quot;sourcePerimeterSpacing&quot;:0,&quot;targetPerimeterSpacing&quot;:0};" vertex="1" parent="1">
          <mxGeometry x="695" y="-330" width="60" height="30" as="geometry" />
        </mxCell>
        <mxCell id="QAyq8AawGoxaaEf4JyG8-67" value="" style="edgeStyle=entityRelationEdgeStyle;startArrow=none;endArrow=none;segment=10;curved=1;sourcePerimeterSpacing=0;targetPerimeterSpacing=0;rounded=0;exitX=0.5;exitY=0;exitDx=0;exitDy=0;" edge="1" target="QAyq8AawGoxaaEf4JyG8-66" parent="1" source="QAyq8AawGoxaaEf4JyG8-19">
          <mxGeometry relative="1" as="geometry">
            <mxPoint x="645" y="-280" as="sourcePoint" />
            <Array as="points">
              <mxPoint x="640" y="-270" />
            </Array>
          </mxGeometry>
        </mxCell>
        <mxCell id="QAyq8AawGoxaaEf4JyG8-68" value="Upload Dokumen Terkait" style="whiteSpace=wrap;html=1;rounded=1;arcSize=50;align=center;verticalAlign=middle;strokeWidth=1;autosize=1;spacing=4;treeFolding=1;treeMoving=1;newEdgeStyle={&quot;edgeStyle&quot;:&quot;entityRelationEdgeStyle&quot;,&quot;startArrow&quot;:&quot;none&quot;,&quot;endArrow&quot;:&quot;none&quot;,&quot;segment&quot;:10,&quot;curved&quot;:1,&quot;sourcePerimeterSpacing&quot;:0,&quot;targetPerimeterSpacing&quot;:0};" vertex="1" parent="1">
          <mxGeometry x="765" y="-320" width="180" height="30" as="geometry" />
        </mxCell>
        <mxCell id="QAyq8AawGoxaaEf4JyG8-69" value="" style="edgeStyle=entityRelationEdgeStyle;startArrow=none;endArrow=none;segment=10;curved=1;sourcePerimeterSpacing=0;targetPerimeterSpacing=0;rounded=0;entryX=-0.015;entryY=0.646;entryDx=0;entryDy=0;entryPerimeter=0;" edge="1" target="QAyq8AawGoxaaEf4JyG8-68" parent="1">
          <mxGeometry relative="1" as="geometry">
            <mxPoint x="755" y="-300" as="sourcePoint" />
          </mxGeometry>
        </mxCell>
        <mxCell id="QAyq8AawGoxaaEf4JyG8-71" value="" style="edgeStyle=entityRelationEdgeStyle;startArrow=none;endArrow=none;segment=10;curved=1;sourcePerimeterSpacing=0;targetPerimeterSpacing=0;rounded=0;exitX=0.912;exitY=0.019;exitDx=0;exitDy=0;exitPerimeter=0;" edge="1" target="QAyq8AawGoxaaEf4JyG8-70" parent="1" source="QAyq8AawGoxaaEf4JyG8-19">
          <mxGeometry relative="1" as="geometry">
            <mxPoint x="699" y="-268" as="sourcePoint" />
          </mxGeometry>
        </mxCell>
        <mxCell id="QAyq8AawGoxaaEf4JyG8-72" value="Check Seluruh Kelengkapan Dokumen" style="whiteSpace=wrap;html=1;rounded=1;arcSize=50;align=center;verticalAlign=middle;strokeWidth=1;autosize=1;spacing=4;treeFolding=1;treeMoving=1;newEdgeStyle={&quot;edgeStyle&quot;:&quot;entityRelationEdgeStyle&quot;,&quot;startArrow&quot;:&quot;none&quot;,&quot;endArrow&quot;:&quot;none&quot;,&quot;segment&quot;:10,&quot;curved&quot;:1,&quot;sourcePerimeterSpacing&quot;:0,&quot;targetPerimeterSpacing&quot;:0};" vertex="1" parent="1">
          <mxGeometry x="810" y="-280" width="250" height="30" as="geometry" />
        </mxCell>
        <mxCell id="QAyq8AawGoxaaEf4JyG8-73" value="" style="edgeStyle=entityRelationEdgeStyle;startArrow=none;endArrow=none;segment=10;curved=1;sourcePerimeterSpacing=0;targetPerimeterSpacing=0;rounded=0;entryX=-0.008;entryY=0.664;entryDx=0;entryDy=0;entryPerimeter=0;" edge="1" target="QAyq8AawGoxaaEf4JyG8-72" parent="1" source="QAyq8AawGoxaaEf4JyG8-70">
          <mxGeometry relative="1" as="geometry">
            <mxPoint x="805" y="-250" as="sourcePoint" />
            <Array as="points" />
          </mxGeometry>
        </mxCell>
        <mxCell id="QAyq8AawGoxaaEf4JyG8-74" value="Dirut" style="whiteSpace=wrap;html=1;shape=partialRectangle;top=0;left=0;bottom=1;right=0;points=[[0,1],[1,1]];fillColor=none;align=center;verticalAlign=bottom;routingCenterY=0.5;snapToPoint=1;recursiveResize=0;autosize=1;treeFolding=1;treeMoving=1;newEdgeStyle={&quot;edgeStyle&quot;:&quot;entityRelationEdgeStyle&quot;,&quot;startArrow&quot;:&quot;none&quot;,&quot;endArrow&quot;:&quot;none&quot;,&quot;segment&quot;:10,&quot;curved&quot;:1,&quot;sourcePerimeterSpacing&quot;:0,&quot;targetPerimeterSpacing&quot;:0};" vertex="1" parent="1">
          <mxGeometry x="735" y="-250" width="70" height="30" as="geometry" />
        </mxCell>
        <mxCell id="QAyq8AawGoxaaEf4JyG8-75" value="" style="edgeStyle=entityRelationEdgeStyle;startArrow=none;endArrow=none;segment=10;curved=1;sourcePerimeterSpacing=0;targetPerimeterSpacing=0;rounded=0;exitX=0.919;exitY=1.06;exitDx=0;exitDy=0;exitPerimeter=0;" edge="1" target="QAyq8AawGoxaaEf4JyG8-74" parent="1" source="QAyq8AawGoxaaEf4JyG8-19">
          <mxGeometry relative="1" as="geometry">
            <mxPoint x="700" y="-239" as="sourcePoint" />
          </mxGeometry>
        </mxCell>
        <mxCell id="QAyq8AawGoxaaEf4JyG8-70" value="DI" style="whiteSpace=wrap;html=1;shape=partialRectangle;top=0;left=0;bottom=1;right=0;points=[[0,1],[1,1]];fillColor=none;align=center;verticalAlign=bottom;routingCenterY=0.5;snapToPoint=1;recursiveResize=0;autosize=1;treeFolding=1;treeMoving=1;newEdgeStyle={&quot;edgeStyle&quot;:&quot;entityRelationEdgeStyle&quot;,&quot;startArrow&quot;:&quot;none&quot;,&quot;endArrow&quot;:&quot;none&quot;,&quot;segment&quot;:10,&quot;curved&quot;:1,&quot;sourcePerimeterSpacing&quot;:0,&quot;targetPerimeterSpacing&quot;:0};" vertex="1" parent="1">
          <mxGeometry x="730" y="-290" width="50" height="30" as="geometry" />
        </mxCell>
        <mxCell id="QAyq8AawGoxaaEf4JyG8-77" value="Make Decision Keberlanjutan Proyek" style="whiteSpace=wrap;html=1;rounded=1;arcSize=50;align=center;verticalAlign=middle;strokeWidth=1;autosize=1;spacing=4;treeFolding=1;treeMoving=1;newEdgeStyle={&quot;edgeStyle&quot;:&quot;entityRelationEdgeStyle&quot;,&quot;startArrow&quot;:&quot;none&quot;,&quot;endArrow&quot;:&quot;none&quot;,&quot;segment&quot;:10,&quot;curved&quot;:1,&quot;sourcePerimeterSpacing&quot;:0,&quot;targetPerimeterSpacing&quot;:0};" vertex="1" parent="1">
          <mxGeometry x="820" y="-240" width="240" height="30" as="geometry" />
        </mxCell>
        <mxCell id="QAyq8AawGoxaaEf4JyG8-78" value="" style="edgeStyle=entityRelationEdgeStyle;startArrow=none;endArrow=none;segment=10;curved=1;sourcePerimeterSpacing=0;targetPerimeterSpacing=0;rounded=0;entryX=-0.008;entryY=0.665;entryDx=0;entryDy=0;entryPerimeter=0;" edge="1" target="QAyq8AawGoxaaEf4JyG8-77" parent="1">
          <mxGeometry relative="1" as="geometry">
            <mxPoint x="800" y="-220" as="sourcePoint" />
          </mxGeometry>
        </mxCell>
        <mxCell id="QAyq8AawGoxaaEf4JyG8-80" value="TIK" style="whiteSpace=wrap;html=1;shape=partialRectangle;top=0;left=0;bottom=1;right=0;points=[[0,1],[1,1]];fillColor=none;align=center;verticalAlign=bottom;routingCenterY=0.5;snapToPoint=1;recursiveResize=0;autosize=1;treeFolding=1;treeMoving=1;newEdgeStyle={&quot;edgeStyle&quot;:&quot;entityRelationEdgeStyle&quot;,&quot;startArrow&quot;:&quot;none&quot;,&quot;endArrow&quot;:&quot;none&quot;,&quot;segment&quot;:10,&quot;curved&quot;:1,&quot;sourcePerimeterSpacing&quot;:0,&quot;targetPerimeterSpacing&quot;:0};" vertex="1" parent="1">
          <mxGeometry x="725" y="-210" width="60" height="30" as="geometry" />
        </mxCell>
        <mxCell id="QAyq8AawGoxaaEf4JyG8-81" value="" style="edgeStyle=entityRelationEdgeStyle;startArrow=none;endArrow=none;segment=10;curved=1;sourcePerimeterSpacing=0;targetPerimeterSpacing=0;rounded=0;exitX=0.531;exitY=1.036;exitDx=0;exitDy=0;exitPerimeter=0;" edge="1" target="QAyq8AawGoxaaEf4JyG8-80" parent="1" source="QAyq8AawGoxaaEf4JyG8-19">
          <mxGeometry relative="1" as="geometry">
            <mxPoint x="670" y="-237" as="sourcePoint" />
            <Array as="points">
              <mxPoint x="650" y="-237" />
            </Array>
          </mxGeometry>
        </mxCell>
        <mxCell id="QAyq8AawGoxaaEf4JyG8-82" value="FIx Error and Update Database" style="whiteSpace=wrap;html=1;rounded=1;arcSize=50;align=center;verticalAlign=middle;strokeWidth=1;autosize=1;spacing=4;treeFolding=1;treeMoving=1;newEdgeStyle={&quot;edgeStyle&quot;:&quot;entityRelationEdgeStyle&quot;,&quot;startArrow&quot;:&quot;none&quot;,&quot;endArrow&quot;:&quot;none&quot;,&quot;segment&quot;:10,&quot;curved&quot;:1,&quot;sourcePerimeterSpacing&quot;:0,&quot;targetPerimeterSpacing&quot;:0};" vertex="1" parent="1">
          <mxGeometry x="820" y="-200" width="210" height="30" as="geometry" />
        </mxCell>
        <mxCell id="QAyq8AawGoxaaEf4JyG8-83" value="" style="edgeStyle=entityRelationEdgeStyle;startArrow=none;endArrow=none;segment=10;curved=1;sourcePerimeterSpacing=0;targetPerimeterSpacing=0;rounded=0;entryX=0.007;entryY=0.674;entryDx=0;entryDy=0;entryPerimeter=0;" edge="1" target="QAyq8AawGoxaaEf4JyG8-82" parent="1">
          <mxGeometry relative="1" as="geometry">
            <mxPoint x="780" y="-180" as="sourcePoint" />
            <Array as="points">
              <mxPoint x="820" y="-160" />
            </Array>
          </mxGeometry>
        </mxCell>
        <mxCell id="QAyq8AawGoxaaEf4JyG8-84" value="PM" style="whiteSpace=wrap;html=1;shape=partialRectangle;top=0;left=0;bottom=1;right=0;points=[[0,1],[1,1]];fillColor=none;align=center;verticalAlign=bottom;routingCenterY=0.5;snapToPoint=1;recursiveResize=0;autosize=1;treeFolding=1;treeMoving=1;newEdgeStyle={&quot;edgeStyle&quot;:&quot;entityRelationEdgeStyle&quot;,&quot;startArrow&quot;:&quot;none&quot;,&quot;endArrow&quot;:&quot;none&quot;,&quot;segment&quot;:10,&quot;curved&quot;:1,&quot;sourcePerimeterSpacing&quot;:0,&quot;targetPerimeterSpacing&quot;:0};" vertex="1" parent="1">
          <mxGeometry x="570" y="-160" width="60" height="30" as="geometry" />
        </mxCell>
        <mxCell id="QAyq8AawGoxaaEf4JyG8-85" value="" style="edgeStyle=entityRelationEdgeStyle;startArrow=none;endArrow=none;segment=10;curved=1;sourcePerimeterSpacing=0;targetPerimeterSpacing=0;rounded=0;exitX=0.886;exitY=1.048;exitDx=0;exitDy=0;exitPerimeter=0;" edge="1" target="QAyq8AawGoxaaEf4JyG8-84" parent="1" source="QAyq8AawGoxaaEf4JyG8-21">
          <mxGeometry relative="1" as="geometry">
            <mxPoint x="580" y="-210" as="sourcePoint" />
            <Array as="points">
              <mxPoint x="560" y="-210" />
              <mxPoint x="570" y="-210" />
            </Array>
          </mxGeometry>
        </mxCell>
        <mxCell id="QAyq8AawGoxaaEf4JyG8-88" value="" style="edgeStyle=entityRelationEdgeStyle;rounded=0;orthogonalLoop=1;jettySize=auto;html=1;startArrow=none;endArrow=none;segment=10;curved=1;sourcePerimeterSpacing=0;targetPerimeterSpacing=0;exitX=0.001;exitY=0.663;exitDx=0;exitDy=0;exitPerimeter=0;" edge="1" parent="1" source="QAyq8AawGoxaaEf4JyG8-87" target="QAyq8AawGoxaaEf4JyG8-84">
          <mxGeometry relative="1" as="geometry" />
        </mxCell>
        <mxCell id="QAyq8AawGoxaaEf4JyG8-87" value="Upload Dokumen Terkait" style="whiteSpace=wrap;html=1;rounded=1;arcSize=50;align=center;verticalAlign=middle;strokeWidth=1;autosize=1;spacing=4;treeFolding=1;treeMoving=1;newEdgeStyle={&quot;edgeStyle&quot;:&quot;entityRelationEdgeStyle&quot;,&quot;startArrow&quot;:&quot;none&quot;,&quot;endArrow&quot;:&quot;none&quot;,&quot;segment&quot;:10,&quot;curved&quot;:1,&quot;sourcePerimeterSpacing&quot;:0,&quot;targetPerimeterSpacing&quot;:0};" vertex="1" parent="1">
          <mxGeometry x="645" y="-150" width="180" height="30" as="geometry" />
        </mxCell>
        <mxCell id="QAyq8AawGoxaaEf4JyG8-90" value="Pelanggan" style="whiteSpace=wrap;html=1;shape=partialRectangle;top=0;left=0;bottom=1;right=0;points=[[0,1],[1,1]];fillColor=none;align=center;verticalAlign=bottom;routingCenterY=0.5;snapToPoint=1;recursiveResize=0;autosize=1;treeFolding=1;treeMoving=1;newEdgeStyle={&quot;edgeStyle&quot;:&quot;entityRelationEdgeStyle&quot;,&quot;startArrow&quot;:&quot;none&quot;,&quot;endArrow&quot;:&quot;none&quot;,&quot;segment&quot;:10,&quot;curved&quot;:1,&quot;sourcePerimeterSpacing&quot;:0,&quot;targetPerimeterSpacing&quot;:0};" vertex="1" parent="1">
          <mxGeometry x="530" y="-120" width="100" height="30" as="geometry" />
        </mxCell>
        <mxCell id="QAyq8AawGoxaaEf4JyG8-91" value="" style="edgeStyle=entityRelationEdgeStyle;startArrow=none;endArrow=none;segment=10;curved=1;sourcePerimeterSpacing=0;targetPerimeterSpacing=0;rounded=0;exitX=0.548;exitY=1.045;exitDx=0;exitDy=0;exitPerimeter=0;" edge="1" target="QAyq8AawGoxaaEf4JyG8-90" parent="1" source="QAyq8AawGoxaaEf4JyG8-21">
          <mxGeometry relative="1" as="geometry">
            <mxPoint x="527.5" y="-140" as="sourcePoint" />
          </mxGeometry>
        </mxCell>
        <mxCell id="QAyq8AawGoxaaEf4JyG8-92" value="Completed Seluruh Dokumen&amp;nbsp;" style="whiteSpace=wrap;html=1;rounded=1;arcSize=50;align=center;verticalAlign=middle;strokeWidth=1;autosize=1;spacing=4;treeFolding=1;treeMoving=1;newEdgeStyle={&quot;edgeStyle&quot;:&quot;entityRelationEdgeStyle&quot;,&quot;startArrow&quot;:&quot;none&quot;,&quot;endArrow&quot;:&quot;none&quot;,&quot;segment&quot;:10,&quot;curved&quot;:1,&quot;sourcePerimeterSpacing&quot;:0,&quot;targetPerimeterSpacing&quot;:0};" vertex="1" parent="1">
          <mxGeometry x="630" y="-110" width="210" height="30" as="geometry" />
        </mxCell>
        <mxCell id="QAyq8AawGoxaaEf4JyG8-93" value="" style="edgeStyle=entityRelationEdgeStyle;startArrow=none;endArrow=none;segment=10;curved=1;sourcePerimeterSpacing=0;targetPerimeterSpacing=0;rounded=0;entryX=0;entryY=0.627;entryDx=0;entryDy=0;entryPerimeter=0;exitX=0.92;exitY=1.021;exitDx=0;exitDy=0;exitPerimeter=0;" edge="1" target="QAyq8AawGoxaaEf4JyG8-92" parent="1" source="QAyq8AawGoxaaEf4JyG8-90">
          <mxGeometry relative="1" as="geometry">
            <mxPoint x="630" y="-90" as="sourcePoint" />
            <mxPoint x="680" y="-90" as="targetPoint" />
          </mxGeometry>
        </mxCell>
        <mxCell id="QAyq8AawGoxaaEf4JyG8-95" value="TIK" style="whiteSpace=wrap;html=1;shape=partialRectangle;top=0;left=0;bottom=1;right=0;points=[[0,1],[1,1]];fillColor=none;align=center;verticalAlign=bottom;routingCenterY=0.5;snapToPoint=1;recursiveResize=0;autosize=1;treeFolding=1;treeMoving=1;newEdgeStyle={&quot;edgeStyle&quot;:&quot;entityRelationEdgeStyle&quot;,&quot;startArrow&quot;:&quot;none&quot;,&quot;endArrow&quot;:&quot;none&quot;,&quot;segment&quot;:10,&quot;curved&quot;:1,&quot;sourcePerimeterSpacing&quot;:0,&quot;targetPerimeterSpacing&quot;:0};" vertex="1" parent="1">
          <mxGeometry x="500" y="-80" width="60" height="30" as="geometry" />
        </mxCell>
        <mxCell id="QAyq8AawGoxaaEf4JyG8-96" value="" style="edgeStyle=entityRelationEdgeStyle;startArrow=none;endArrow=none;segment=10;curved=1;sourcePerimeterSpacing=0;targetPerimeterSpacing=0;rounded=0;exitX=0.183;exitY=1.045;exitDx=0;exitDy=0;exitPerimeter=0;" edge="1" target="QAyq8AawGoxaaEf4JyG8-95" parent="1" source="QAyq8AawGoxaaEf4JyG8-21">
          <mxGeometry relative="1" as="geometry">
            <mxPoint x="380.0000000000001" y="-170.6000000000001" as="sourcePoint" />
          </mxGeometry>
        </mxCell>
        <mxCell id="QAyq8AawGoxaaEf4JyG8-97" value="Check error and Fix File Manager&amp;nbsp;" style="whiteSpace=wrap;html=1;rounded=1;arcSize=50;align=center;verticalAlign=middle;strokeWidth=1;autosize=1;spacing=4;treeFolding=1;treeMoving=1;newEdgeStyle={&quot;edgeStyle&quot;:&quot;entityRelationEdgeStyle&quot;,&quot;startArrow&quot;:&quot;none&quot;,&quot;endArrow&quot;:&quot;none&quot;,&quot;segment&quot;:10,&quot;curved&quot;:1,&quot;sourcePerimeterSpacing&quot;:0,&quot;targetPerimeterSpacing&quot;:0};" vertex="1" parent="1">
          <mxGeometry x="620" y="-60" width="230" height="30" as="geometry" />
        </mxCell>
        <mxCell id="QAyq8AawGoxaaEf4JyG8-98" value="" style="edgeStyle=entityRelationEdgeStyle;startArrow=none;endArrow=none;segment=10;curved=1;sourcePerimeterSpacing=0;targetPerimeterSpacing=0;rounded=0;exitX=0.824;exitY=1.008;exitDx=0;exitDy=0;exitPerimeter=0;entryX=0.005;entryY=0.341;entryDx=0;entryDy=0;entryPerimeter=0;" edge="1" target="QAyq8AawGoxaaEf4JyG8-97" parent="1" source="QAyq8AawGoxaaEf4JyG8-95">
          <mxGeometry relative="1" as="geometry">
            <mxPoint x="590" y="-18" as="sourcePoint" />
          </mxGeometry>
        </mxCell>
        <mxCell id="QAyq8AawGoxaaEf4JyG8-101" value="PM" style="whiteSpace=wrap;html=1;shape=partialRectangle;top=0;left=0;bottom=1;right=0;points=[[0,1],[1,1]];fillColor=none;align=center;verticalAlign=bottom;routingCenterY=0.5;snapToPoint=1;recursiveResize=0;autosize=1;treeFolding=1;treeMoving=1;newEdgeStyle={&quot;edgeStyle&quot;:&quot;entityRelationEdgeStyle&quot;,&quot;startArrow&quot;:&quot;none&quot;,&quot;endArrow&quot;:&quot;none&quot;,&quot;segment&quot;:10,&quot;curved&quot;:1,&quot;sourcePerimeterSpacing&quot;:0,&quot;targetPerimeterSpacing&quot;:0};" vertex="1" parent="1">
          <mxGeometry x="350" y="-665" width="60" height="30" as="geometry" />
        </mxCell>
        <mxCell id="QAyq8AawGoxaaEf4JyG8-102" value="" style="edgeStyle=entityRelationEdgeStyle;startArrow=none;endArrow=none;segment=10;curved=1;sourcePerimeterSpacing=0;targetPerimeterSpacing=0;rounded=0;entryX=1;entryY=1;entryDx=0;entryDy=0;exitX=0.75;exitY=0;exitDx=0;exitDy=0;" edge="1" target="QAyq8AawGoxaaEf4JyG8-101" parent="1" source="QAyq8AawGoxaaEf4JyG8-10">
          <mxGeometry relative="1" as="geometry">
            <mxPoint x="400" y="-600" as="sourcePoint" />
            <mxPoint x="340" y="-620" as="targetPoint" />
          </mxGeometry>
        </mxCell>
        <mxCell id="QAyq8AawGoxaaEf4JyG8-103" value="Request Invoice to FInance" style="whiteSpace=wrap;html=1;rounded=1;arcSize=50;align=center;verticalAlign=middle;strokeWidth=1;autosize=1;spacing=4;treeFolding=1;treeMoving=1;newEdgeStyle={&quot;edgeStyle&quot;:&quot;entityRelationEdgeStyle&quot;,&quot;startArrow&quot;:&quot;none&quot;,&quot;endArrow&quot;:&quot;none&quot;,&quot;segment&quot;:10,&quot;curved&quot;:1,&quot;sourcePerimeterSpacing&quot;:0,&quot;targetPerimeterSpacing&quot;:0};" vertex="1" parent="1">
          <mxGeometry x="140" y="-650" width="190" height="30" as="geometry" />
        </mxCell>
        <mxCell id="QAyq8AawGoxaaEf4JyG8-104" value="" style="edgeStyle=entityRelationEdgeStyle;startArrow=none;endArrow=none;segment=10;curved=1;sourcePerimeterSpacing=0;targetPerimeterSpacing=0;rounded=0;exitX=0.15;exitY=1.019;exitDx=0;exitDy=0;exitPerimeter=0;" edge="1" parent="1" source="QAyq8AawGoxaaEf4JyG8-101">
          <mxGeometry relative="1" as="geometry">
            <mxPoint x="60" y="-650" as="sourcePoint" />
            <mxPoint x="331" y="-634" as="targetPoint" />
          </mxGeometry>
        </mxCell>
        <mxCell id="QAyq8AawGoxaaEf4JyG8-107" value="TIK" style="whiteSpace=wrap;html=1;shape=partialRectangle;top=0;left=0;bottom=1;right=0;points=[[0,1],[1,1]];fillColor=none;align=center;verticalAlign=bottom;routingCenterY=0.5;snapToPoint=1;recursiveResize=0;autosize=1;treeFolding=1;treeMoving=1;newEdgeStyle={&quot;edgeStyle&quot;:&quot;entityRelationEdgeStyle&quot;,&quot;startArrow&quot;:&quot;none&quot;,&quot;endArrow&quot;:&quot;none&quot;,&quot;segment&quot;:10,&quot;curved&quot;:1,&quot;sourcePerimeterSpacing&quot;:0,&quot;targetPerimeterSpacing&quot;:0};" vertex="1" parent="1">
          <mxGeometry x="370" y="-700" width="55" height="30" as="geometry" />
        </mxCell>
        <mxCell id="QAyq8AawGoxaaEf4JyG8-108" value="" style="edgeStyle=entityRelationEdgeStyle;startArrow=none;endArrow=none;segment=10;curved=1;sourcePerimeterSpacing=0;targetPerimeterSpacing=0;rounded=0;exitX=0.946;exitY=0.077;exitDx=0;exitDy=0;exitPerimeter=0;entryX=0.942;entryY=1.002;entryDx=0;entryDy=0;entryPerimeter=0;" edge="1" target="QAyq8AawGoxaaEf4JyG8-107" parent="1" source="QAyq8AawGoxaaEf4JyG8-10">
          <mxGeometry relative="1" as="geometry">
            <mxPoint x="410" y="-600" as="sourcePoint" />
            <Array as="points">
              <mxPoint x="440" y="-630" />
            </Array>
          </mxGeometry>
        </mxCell>
        <mxCell id="QAyq8AawGoxaaEf4JyG8-109" value="Check FIle Error and Fix File Manager, Update&amp;nbsp; Database" style="whiteSpace=wrap;html=1;rounded=1;arcSize=50;align=center;verticalAlign=middle;strokeWidth=1;autosize=1;spacing=4;treeFolding=1;treeMoving=1;newEdgeStyle={&quot;edgeStyle&quot;:&quot;entityRelationEdgeStyle&quot;,&quot;startArrow&quot;:&quot;none&quot;,&quot;endArrow&quot;:&quot;none&quot;,&quot;segment&quot;:10,&quot;curved&quot;:1,&quot;sourcePerimeterSpacing&quot;:0,&quot;targetPerimeterSpacing&quot;:0};" vertex="1" parent="1">
          <mxGeometry y="-690" width="350" height="30" as="geometry" />
        </mxCell>
        <mxCell id="QAyq8AawGoxaaEf4JyG8-110" value="" style="edgeStyle=entityRelationEdgeStyle;startArrow=none;endArrow=none;segment=10;curved=1;sourcePerimeterSpacing=0;targetPerimeterSpacing=0;rounded=0;exitX=0;exitY=1;exitDx=0;exitDy=0;entryX=1;entryY=0.661;entryDx=0;entryDy=0;entryPerimeter=0;" edge="1" target="QAyq8AawGoxaaEf4JyG8-109" parent="1" source="QAyq8AawGoxaaEf4JyG8-107">
          <mxGeometry relative="1" as="geometry">
            <mxPoint x="60" y="-708" as="sourcePoint" />
          </mxGeometry>
        </mxCell>
        <mxCell id="QAyq8AawGoxaaEf4JyG8-111" value="Data Pengajuan Prefinancing" style="whiteSpace=wrap;html=1;rounded=1;arcSize=50;align=center;verticalAlign=middle;strokeWidth=1;autosize=1;spacing=4;treeFolding=1;treeMoving=1;newEdgeStyle={&quot;edgeStyle&quot;:&quot;entityRelationEdgeStyle&quot;,&quot;startArrow&quot;:&quot;none&quot;,&quot;endArrow&quot;:&quot;none&quot;,&quot;segment&quot;:10,&quot;curved&quot;:1,&quot;sourcePerimeterSpacing&quot;:0,&quot;targetPerimeterSpacing&quot;:0};" vertex="1" parent="1">
          <mxGeometry x="110" y="-610" width="200" height="30" as="geometry" />
        </mxCell>
        <mxCell id="QAyq8AawGoxaaEf4JyG8-112" value="" style="edgeStyle=entityRelationEdgeStyle;startArrow=none;endArrow=none;segment=10;curved=1;sourcePerimeterSpacing=0;targetPerimeterSpacing=0;rounded=0;exitX=0;exitY=0.25;exitDx=0;exitDy=0;" edge="1" target="QAyq8AawGoxaaEf4JyG8-111" parent="1" source="QAyq8AawGoxaaEf4JyG8-10">
          <mxGeometry relative="1" as="geometry">
            <mxPoint x="170" y="-568" as="sourcePoint" />
          </mxGeometry>
        </mxCell>
        <mxCell id="QAyq8AawGoxaaEf4JyG8-113" value="Data Pengajuan Invoice" style="whiteSpace=wrap;html=1;rounded=1;arcSize=50;align=center;verticalAlign=middle;strokeWidth=1;autosize=1;spacing=4;treeFolding=1;treeMoving=1;newEdgeStyle={&quot;edgeStyle&quot;:&quot;entityRelationEdgeStyle&quot;,&quot;startArrow&quot;:&quot;none&quot;,&quot;endArrow&quot;:&quot;none&quot;,&quot;segment&quot;:10,&quot;curved&quot;:1,&quot;sourcePerimeterSpacing&quot;:0,&quot;targetPerimeterSpacing&quot;:0};" vertex="1" parent="1">
          <mxGeometry x="140" y="-570" width="170" height="30" as="geometry" />
        </mxCell>
        <mxCell id="QAyq8AawGoxaaEf4JyG8-114" value="" style="edgeStyle=entityRelationEdgeStyle;startArrow=none;endArrow=none;segment=10;curved=1;sourcePerimeterSpacing=0;targetPerimeterSpacing=0;rounded=0;exitX=0;exitY=0.5;exitDx=0;exitDy=0;" edge="1" target="QAyq8AawGoxaaEf4JyG8-113" parent="1" source="QAyq8AawGoxaaEf4JyG8-10">
          <mxGeometry relative="1" as="geometry">
            <mxPoint x="280.0000000000002" y="-580" as="sourcePoint" />
          </mxGeometry>
        </mxCell>
        <mxCell id="QAyq8AawGoxaaEf4JyG8-116" value="Dept.Finance&amp;nbsp;" style="whiteSpace=wrap;html=1;shape=partialRectangle;top=0;left=0;bottom=1;right=0;points=[[0,1],[1,1]];fillColor=none;align=center;verticalAlign=bottom;routingCenterY=0.5;snapToPoint=1;recursiveResize=0;autosize=1;treeFolding=1;treeMoving=1;newEdgeStyle={&quot;edgeStyle&quot;:&quot;entityRelationEdgeStyle&quot;,&quot;startArrow&quot;:&quot;none&quot;,&quot;endArrow&quot;:&quot;none&quot;,&quot;segment&quot;:10,&quot;curved&quot;:1,&quot;sourcePerimeterSpacing&quot;:0,&quot;targetPerimeterSpacing&quot;:0};" vertex="1" parent="1">
          <mxGeometry x="10" y="-595" width="90" height="30" as="geometry" />
        </mxCell>
        <mxCell id="QAyq8AawGoxaaEf4JyG8-117" value="" style="edgeStyle=entityRelationEdgeStyle;startArrow=none;endArrow=none;segment=10;curved=1;sourcePerimeterSpacing=0;targetPerimeterSpacing=0;rounded=0;exitX=0;exitY=0.5;exitDx=0;exitDy=0;" edge="1" target="QAyq8AawGoxaaEf4JyG8-116" parent="1" source="QAyq8AawGoxaaEf4JyG8-113">
          <mxGeometry relative="1" as="geometry">
            <mxPoint x="100" y="-555" as="sourcePoint" />
          </mxGeometry>
        </mxCell>
        <mxCell id="QAyq8AawGoxaaEf4JyG8-118" value="Upload Invoice di File Manager" style="whiteSpace=wrap;html=1;rounded=1;arcSize=50;align=center;verticalAlign=middle;strokeWidth=1;autosize=1;spacing=4;treeFolding=1;treeMoving=1;newEdgeStyle={&quot;edgeStyle&quot;:&quot;entityRelationEdgeStyle&quot;,&quot;startArrow&quot;:&quot;none&quot;,&quot;endArrow&quot;:&quot;none&quot;,&quot;segment&quot;:10,&quot;curved&quot;:1,&quot;sourcePerimeterSpacing&quot;:0,&quot;targetPerimeterSpacing&quot;:0};" vertex="1" parent="1">
          <mxGeometry x="-230" y="-590" width="210" height="30" as="geometry" />
        </mxCell>
        <mxCell id="QAyq8AawGoxaaEf4JyG8-119" value="" style="edgeStyle=entityRelationEdgeStyle;startArrow=none;endArrow=none;segment=10;curved=1;sourcePerimeterSpacing=0;targetPerimeterSpacing=0;rounded=0;exitX=0.023;exitY=1.004;exitDx=0;exitDy=0;exitPerimeter=0;" edge="1" target="QAyq8AawGoxaaEf4JyG8-118" parent="1" source="QAyq8AawGoxaaEf4JyG8-116">
          <mxGeometry relative="1" as="geometry">
            <mxPoint x="-160" y="-593" as="sourcePoint" />
          </mxGeometry>
        </mxCell>
        <mxCell id="QAyq8AawGoxaaEf4JyG8-120" value="TIK" style="whiteSpace=wrap;html=1;shape=partialRectangle;top=0;left=0;bottom=1;right=0;points=[[0,1],[1,1]];fillColor=none;align=center;verticalAlign=bottom;routingCenterY=0.5;snapToPoint=1;recursiveResize=0;autosize=1;treeFolding=1;treeMoving=1;newEdgeStyle={&quot;edgeStyle&quot;:&quot;entityRelationEdgeStyle&quot;,&quot;startArrow&quot;:&quot;none&quot;,&quot;endArrow&quot;:&quot;none&quot;,&quot;segment&quot;:10,&quot;curved&quot;:1,&quot;sourcePerimeterSpacing&quot;:0,&quot;targetPerimeterSpacing&quot;:0};" vertex="1" parent="1">
          <mxGeometry x="25" y="-565" width="60" height="30" as="geometry" />
        </mxCell>
        <mxCell id="QAyq8AawGoxaaEf4JyG8-121" value="" style="edgeStyle=entityRelationEdgeStyle;startArrow=none;endArrow=none;segment=10;curved=1;sourcePerimeterSpacing=0;targetPerimeterSpacing=0;rounded=0;exitX=0;exitY=0.75;exitDx=0;exitDy=0;" edge="1" target="QAyq8AawGoxaaEf4JyG8-120" parent="1" source="QAyq8AawGoxaaEf4JyG8-113">
          <mxGeometry relative="1" as="geometry">
            <mxPoint x="20" y="-557.84" as="sourcePoint" />
          </mxGeometry>
        </mxCell>
        <mxCell id="QAyq8AawGoxaaEf4JyG8-122" value="Check FIle Manager must not Error" style="whiteSpace=wrap;html=1;rounded=1;arcSize=50;align=center;verticalAlign=middle;strokeWidth=1;autosize=1;spacing=4;treeFolding=1;treeMoving=1;newEdgeStyle={&quot;edgeStyle&quot;:&quot;entityRelationEdgeStyle&quot;,&quot;startArrow&quot;:&quot;none&quot;,&quot;endArrow&quot;:&quot;none&quot;,&quot;segment&quot;:10,&quot;curved&quot;:1,&quot;sourcePerimeterSpacing&quot;:0,&quot;targetPerimeterSpacing&quot;:0};" vertex="1" parent="1">
          <mxGeometry x="-240" y="-550" width="230" height="30" as="geometry" />
        </mxCell>
        <mxCell id="QAyq8AawGoxaaEf4JyG8-123" value="" style="edgeStyle=entityRelationEdgeStyle;startArrow=none;endArrow=none;segment=10;curved=1;sourcePerimeterSpacing=0;targetPerimeterSpacing=0;rounded=0;exitX=0;exitY=1;exitDx=0;exitDy=0;entryX=1;entryY=0.5;entryDx=0;entryDy=0;" edge="1" target="QAyq8AawGoxaaEf4JyG8-122" parent="1" source="QAyq8AawGoxaaEf4JyG8-120">
          <mxGeometry relative="1" as="geometry">
            <mxPoint x="-170" y="-480" as="sourcePoint" />
          </mxGeometry>
        </mxCell>
        <mxCell id="QAyq8AawGoxaaEf4JyG8-126" value="PM" style="whiteSpace=wrap;html=1;shape=partialRectangle;top=0;left=0;bottom=1;right=0;points=[[0,1],[1,1]];fillColor=none;align=center;verticalAlign=bottom;routingCenterY=0.5;snapToPoint=1;recursiveResize=0;autosize=1;treeFolding=1;treeMoving=1;newEdgeStyle={&quot;edgeStyle&quot;:&quot;entityRelationEdgeStyle&quot;,&quot;startArrow&quot;:&quot;none&quot;,&quot;endArrow&quot;:&quot;none&quot;,&quot;segment&quot;:10,&quot;curved&quot;:1,&quot;sourcePerimeterSpacing&quot;:0,&quot;targetPerimeterSpacing&quot;:0};" vertex="1" parent="1">
          <mxGeometry x="240" y="-330" width="60" height="30" as="geometry" />
        </mxCell>
        <mxCell id="QAyq8AawGoxaaEf4JyG8-127" value="" style="edgeStyle=entityRelationEdgeStyle;startArrow=none;endArrow=none;segment=10;curved=1;sourcePerimeterSpacing=0;targetPerimeterSpacing=0;rounded=0;exitX=0;exitY=0.25;exitDx=0;exitDy=0;" edge="1" target="QAyq8AawGoxaaEf4JyG8-126" parent="1" source="QAyq8AawGoxaaEf4JyG8-23">
          <mxGeometry relative="1" as="geometry">
            <mxPoint x="180" y="-312.5" as="sourcePoint" />
          </mxGeometry>
        </mxCell>
        <mxCell id="QAyq8AawGoxaaEf4JyG8-129" value="Fill Data dan Dokumen Terkait" style="whiteSpace=wrap;html=1;rounded=1;arcSize=50;align=center;verticalAlign=middle;strokeWidth=1;autosize=1;spacing=4;treeFolding=1;treeMoving=1;newEdgeStyle={&quot;edgeStyle&quot;:&quot;entityRelationEdgeStyle&quot;,&quot;startArrow&quot;:&quot;none&quot;,&quot;endArrow&quot;:&quot;none&quot;,&quot;segment&quot;:10,&quot;curved&quot;:1,&quot;sourcePerimeterSpacing&quot;:0,&quot;targetPerimeterSpacing&quot;:0};" vertex="1" parent="1">
          <mxGeometry x="25" y="-310" width="210" height="30" as="geometry" />
        </mxCell>
        <mxCell id="QAyq8AawGoxaaEf4JyG8-130" value="" style="edgeStyle=entityRelationEdgeStyle;startArrow=none;endArrow=none;segment=10;curved=1;sourcePerimeterSpacing=0;targetPerimeterSpacing=0;rounded=0;exitX=0.209;exitY=1.011;exitDx=0;exitDy=0;exitPerimeter=0;entryX=1;entryY=0.344;entryDx=0;entryDy=0;entryPerimeter=0;" edge="1" target="QAyq8AawGoxaaEf4JyG8-129" parent="1" source="QAyq8AawGoxaaEf4JyG8-126">
          <mxGeometry relative="1" as="geometry">
            <mxPoint x="60" y="-244" as="sourcePoint" />
          </mxGeometry>
        </mxCell>
        <mxCell id="QAyq8AawGoxaaEf4JyG8-131" value="TIK" style="whiteSpace=wrap;html=1;shape=partialRectangle;top=0;left=0;bottom=1;right=0;points=[[0,1],[1,1]];fillColor=none;align=center;verticalAlign=bottom;routingCenterY=0.5;snapToPoint=1;recursiveResize=0;autosize=1;treeFolding=1;treeMoving=1;newEdgeStyle={&quot;edgeStyle&quot;:&quot;entityRelationEdgeStyle&quot;,&quot;startArrow&quot;:&quot;none&quot;,&quot;endArrow&quot;:&quot;none&quot;,&quot;segment&quot;:10,&quot;curved&quot;:1,&quot;sourcePerimeterSpacing&quot;:0,&quot;targetPerimeterSpacing&quot;:0};" vertex="1" parent="1">
          <mxGeometry x="220" y="-290" width="60" height="30" as="geometry" />
        </mxCell>
        <mxCell id="QAyq8AawGoxaaEf4JyG8-132" value="" style="edgeStyle=entityRelationEdgeStyle;startArrow=none;endArrow=none;segment=10;curved=1;sourcePerimeterSpacing=0;targetPerimeterSpacing=0;rounded=0;exitX=0.117;exitY=0.98;exitDx=0;exitDy=0;exitPerimeter=0;" edge="1" target="QAyq8AawGoxaaEf4JyG8-131" parent="1" source="QAyq8AawGoxaaEf4JyG8-23">
          <mxGeometry relative="1" as="geometry">
            <mxPoint x="280.01" y="-280.14" as="sourcePoint" />
          </mxGeometry>
        </mxCell>
        <mxCell id="QAyq8AawGoxaaEf4JyG8-133" value="Update Data and Check Error" style="whiteSpace=wrap;html=1;rounded=1;arcSize=50;align=center;verticalAlign=middle;strokeWidth=1;autosize=1;spacing=4;treeFolding=1;treeMoving=1;newEdgeStyle={&quot;edgeStyle&quot;:&quot;entityRelationEdgeStyle&quot;,&quot;startArrow&quot;:&quot;none&quot;,&quot;endArrow&quot;:&quot;none&quot;,&quot;segment&quot;:10,&quot;curved&quot;:1,&quot;sourcePerimeterSpacing&quot;:0,&quot;targetPerimeterSpacing&quot;:0};" vertex="1" parent="1">
          <mxGeometry x="-10" y="-270" width="200" height="30" as="geometry" />
        </mxCell>
        <mxCell id="QAyq8AawGoxaaEf4JyG8-134" value="" style="edgeStyle=entityRelationEdgeStyle;startArrow=none;endArrow=none;segment=10;curved=1;sourcePerimeterSpacing=0;targetPerimeterSpacing=0;rounded=0;exitX=0.076;exitY=1.012;exitDx=0;exitDy=0;exitPerimeter=0;" edge="1" target="QAyq8AawGoxaaEf4JyG8-133" parent="1" source="QAyq8AawGoxaaEf4JyG8-131">
          <mxGeometry relative="1" as="geometry">
            <mxPoint x="30" y="-228" as="sourcePoint" />
          </mxGeometry>
        </mxCell>
        <mxCell id="QAyq8AawGoxaaEf4JyG8-135" value="Dept. Finance" style="whiteSpace=wrap;html=1;shape=partialRectangle;top=0;left=0;bottom=1;right=0;points=[[0,1],[1,1]];fillColor=none;align=center;verticalAlign=bottom;routingCenterY=0.5;snapToPoint=1;recursiveResize=0;autosize=1;treeFolding=1;treeMoving=1;newEdgeStyle={&quot;edgeStyle&quot;:&quot;entityRelationEdgeStyle&quot;,&quot;startArrow&quot;:&quot;none&quot;,&quot;endArrow&quot;:&quot;none&quot;,&quot;segment&quot;:10,&quot;curved&quot;:1,&quot;sourcePerimeterSpacing&quot;:0,&quot;targetPerimeterSpacing&quot;:0};" vertex="1" parent="1">
          <mxGeometry x="10" y="-510" width="120" height="30" as="geometry" />
        </mxCell>
        <mxCell id="QAyq8AawGoxaaEf4JyG8-136" value="" style="edgeStyle=entityRelationEdgeStyle;startArrow=none;endArrow=none;segment=10;curved=1;sourcePerimeterSpacing=0;targetPerimeterSpacing=0;rounded=0;exitX=0.089;exitY=0.156;exitDx=0;exitDy=0;exitPerimeter=0;" edge="1" target="QAyq8AawGoxaaEf4JyG8-135" parent="1" source="QAyq8AawGoxaaEf4JyG8-28">
          <mxGeometry relative="1" as="geometry">
            <mxPoint x="-5" y="-450" as="sourcePoint" />
          </mxGeometry>
        </mxCell>
        <mxCell id="QAyq8AawGoxaaEf4JyG8-137" value="Request Dokumen Pemebayaran Dari Data Penagihan" style="whiteSpace=wrap;html=1;rounded=1;arcSize=50;align=center;verticalAlign=middle;strokeWidth=1;autosize=1;spacing=4;treeFolding=1;treeMoving=1;newEdgeStyle={&quot;edgeStyle&quot;:&quot;entityRelationEdgeStyle&quot;,&quot;startArrow&quot;:&quot;none&quot;,&quot;endArrow&quot;:&quot;none&quot;,&quot;segment&quot;:10,&quot;curved&quot;:1,&quot;sourcePerimeterSpacing&quot;:0,&quot;targetPerimeterSpacing&quot;:0};" vertex="1" parent="1">
          <mxGeometry x="-350" y="-500" width="340" height="30" as="geometry" />
        </mxCell>
        <mxCell id="QAyq8AawGoxaaEf4JyG8-138" value="" style="edgeStyle=entityRelationEdgeStyle;startArrow=none;endArrow=none;segment=10;curved=1;sourcePerimeterSpacing=0;targetPerimeterSpacing=0;rounded=0;exitX=0;exitY=1;exitDx=0;exitDy=0;entryX=0.989;entryY=0.663;entryDx=0;entryDy=0;entryPerimeter=0;" edge="1" target="QAyq8AawGoxaaEf4JyG8-137" parent="1" source="QAyq8AawGoxaaEf4JyG8-135">
          <mxGeometry relative="1" as="geometry">
            <mxPoint x="-130" y="-455" as="sourcePoint" />
          </mxGeometry>
        </mxCell>
        <mxCell id="QAyq8AawGoxaaEf4JyG8-140" value="Pelanggan" style="whiteSpace=wrap;html=1;shape=partialRectangle;top=0;left=0;bottom=1;right=0;points=[[0,1],[1,1]];fillColor=none;align=center;verticalAlign=bottom;routingCenterY=0.5;snapToPoint=1;recursiveResize=0;autosize=1;treeFolding=1;treeMoving=1;newEdgeStyle={&quot;edgeStyle&quot;:&quot;entityRelationEdgeStyle&quot;,&quot;startArrow&quot;:&quot;none&quot;,&quot;endArrow&quot;:&quot;none&quot;,&quot;segment&quot;:10,&quot;curved&quot;:1,&quot;sourcePerimeterSpacing&quot;:0,&quot;targetPerimeterSpacing&quot;:0};" vertex="1" parent="1">
          <mxGeometry x="5" y="-470" width="100" height="30" as="geometry" />
        </mxCell>
        <mxCell id="QAyq8AawGoxaaEf4JyG8-141" value="" style="edgeStyle=entityRelationEdgeStyle;startArrow=none;endArrow=none;segment=10;curved=1;sourcePerimeterSpacing=0;targetPerimeterSpacing=0;rounded=0;exitX=0;exitY=0.5;exitDx=0;exitDy=0;" edge="1" target="QAyq8AawGoxaaEf4JyG8-140" parent="1" source="QAyq8AawGoxaaEf4JyG8-28">
          <mxGeometry relative="1" as="geometry">
            <mxPoint x="-130" y="-410" as="sourcePoint" />
          </mxGeometry>
        </mxCell>
        <mxCell id="QAyq8AawGoxaaEf4JyG8-142" value="Do Payment Sesuai&amp;nbsp; Invoice" style="whiteSpace=wrap;html=1;rounded=1;arcSize=50;align=center;verticalAlign=middle;strokeWidth=1;autosize=1;spacing=4;treeFolding=1;treeMoving=1;newEdgeStyle={&quot;edgeStyle&quot;:&quot;entityRelationEdgeStyle&quot;,&quot;startArrow&quot;:&quot;none&quot;,&quot;endArrow&quot;:&quot;none&quot;,&quot;segment&quot;:10,&quot;curved&quot;:1,&quot;sourcePerimeterSpacing&quot;:0,&quot;targetPerimeterSpacing&quot;:0};" vertex="1" parent="1">
          <mxGeometry x="-220" y="-455" width="200" height="30" as="geometry" />
        </mxCell>
        <mxCell id="QAyq8AawGoxaaEf4JyG8-143" value="" style="edgeStyle=entityRelationEdgeStyle;startArrow=none;endArrow=none;segment=10;curved=1;sourcePerimeterSpacing=0;targetPerimeterSpacing=0;rounded=0;exitX=0;exitY=1;exitDx=0;exitDy=0;" edge="1" target="QAyq8AawGoxaaEf4JyG8-142" parent="1" source="QAyq8AawGoxaaEf4JyG8-140">
          <mxGeometry relative="1" as="geometry">
            <mxPoint x="-260" y="-444" as="sourcePoint" />
          </mxGeometry>
        </mxCell>
        <mxCell id="QAyq8AawGoxaaEf4JyG8-144" value="PM" style="whiteSpace=wrap;html=1;shape=partialRectangle;top=0;left=0;bottom=1;right=0;points=[[0,1],[1,1]];fillColor=none;align=center;verticalAlign=bottom;routingCenterY=0.5;snapToPoint=1;recursiveResize=0;autosize=1;treeFolding=1;treeMoving=1;newEdgeStyle={&quot;edgeStyle&quot;:&quot;entityRelationEdgeStyle&quot;,&quot;startArrow&quot;:&quot;none&quot;,&quot;endArrow&quot;:&quot;none&quot;,&quot;segment&quot;:10,&quot;curved&quot;:1,&quot;sourcePerimeterSpacing&quot;:0,&quot;targetPerimeterSpacing&quot;:0};" vertex="1" parent="1">
          <mxGeometry x="20" y="-425" width="60" height="30" as="geometry" />
        </mxCell>
        <mxCell id="QAyq8AawGoxaaEf4JyG8-145" value="" style="edgeStyle=entityRelationEdgeStyle;startArrow=none;endArrow=none;segment=10;curved=1;sourcePerimeterSpacing=0;targetPerimeterSpacing=0;rounded=0;exitX=0;exitY=0.75;exitDx=0;exitDy=0;" edge="1" target="QAyq8AawGoxaaEf4JyG8-144" parent="1" source="QAyq8AawGoxaaEf4JyG8-28">
          <mxGeometry relative="1" as="geometry">
            <mxPoint x="-50" y="-360" as="sourcePoint" />
          </mxGeometry>
        </mxCell>
        <mxCell id="QAyq8AawGoxaaEf4JyG8-146" value="Upload Dokumen Pembayaran" style="whiteSpace=wrap;html=1;rounded=1;arcSize=50;align=center;verticalAlign=middle;strokeWidth=1;autosize=1;spacing=4;treeFolding=1;treeMoving=1;newEdgeStyle={&quot;edgeStyle&quot;:&quot;entityRelationEdgeStyle&quot;,&quot;startArrow&quot;:&quot;none&quot;,&quot;endArrow&quot;:&quot;none&quot;,&quot;segment&quot;:10,&quot;curved&quot;:1,&quot;sourcePerimeterSpacing&quot;:0,&quot;targetPerimeterSpacing&quot;:0};" vertex="1" parent="1">
          <mxGeometry x="-230" y="-410" width="210" height="30" as="geometry" />
        </mxCell>
        <mxCell id="QAyq8AawGoxaaEf4JyG8-147" value="" style="edgeStyle=entityRelationEdgeStyle;startArrow=none;endArrow=none;segment=10;curved=1;sourcePerimeterSpacing=0;targetPerimeterSpacing=0;rounded=0;exitX=0;exitY=1;exitDx=0;exitDy=0;" edge="1" target="QAyq8AawGoxaaEf4JyG8-146" parent="1" source="QAyq8AawGoxaaEf4JyG8-144">
          <mxGeometry relative="1" as="geometry">
            <mxPoint x="-180" y="-374" as="sourcePoint" />
            <Array as="points">
              <mxPoint x="20" y="-400" />
            </Array>
          </mxGeometry>
        </mxCell>
        <mxCell id="QAyq8AawGoxaaEf4JyG8-148" value="Update Data and Check Error" style="whiteSpace=wrap;html=1;rounded=1;arcSize=50;align=center;verticalAlign=middle;strokeWidth=1;autosize=1;spacing=4;treeFolding=1;treeMoving=1;newEdgeStyle={&quot;edgeStyle&quot;:&quot;entityRelationEdgeStyle&quot;,&quot;startArrow&quot;:&quot;none&quot;,&quot;endArrow&quot;:&quot;none&quot;,&quot;segment&quot;:10,&quot;curved&quot;:1,&quot;sourcePerimeterSpacing&quot;:0,&quot;targetPerimeterSpacing&quot;:0};" vertex="1" parent="1">
          <mxGeometry x="-240" y="-370" width="200" height="30" as="geometry" />
        </mxCell>
        <mxCell id="QAyq8AawGoxaaEf4JyG8-149" value="TIK" style="whiteSpace=wrap;html=1;shape=partialRectangle;top=0;left=0;bottom=1;right=0;points=[[0,1],[1,1]];fillColor=none;align=center;verticalAlign=bottom;routingCenterY=0.5;snapToPoint=1;recursiveResize=0;autosize=1;treeFolding=1;treeMoving=1;newEdgeStyle={&quot;edgeStyle&quot;:&quot;entityRelationEdgeStyle&quot;,&quot;startArrow&quot;:&quot;none&quot;,&quot;endArrow&quot;:&quot;none&quot;,&quot;segment&quot;:10,&quot;curved&quot;:1,&quot;sourcePerimeterSpacing&quot;:0,&quot;targetPerimeterSpacing&quot;:0};" vertex="1" parent="1">
          <mxGeometry x="-20" y="-380" width="60" height="30" as="geometry" />
        </mxCell>
        <mxCell id="QAyq8AawGoxaaEf4JyG8-150" value="" style="edgeStyle=entityRelationEdgeStyle;startArrow=none;endArrow=none;segment=10;curved=1;sourcePerimeterSpacing=0;targetPerimeterSpacing=0;rounded=0;exitX=0.03;exitY=0.791;exitDx=0;exitDy=0;exitPerimeter=0;" edge="1" target="QAyq8AawGoxaaEf4JyG8-149" parent="1" source="QAyq8AawGoxaaEf4JyG8-28">
          <mxGeometry relative="1" as="geometry">
            <mxPoint x="240" y="-439.9999999999998" as="sourcePoint" />
            <Array as="points">
              <mxPoint x="225" y="-440" />
            </Array>
          </mxGeometry>
        </mxCell>
        <mxCell id="QAyq8AawGoxaaEf4JyG8-153" value="" style="edgeStyle=entityRelationEdgeStyle;startArrow=none;endArrow=none;segment=10;curved=1;sourcePerimeterSpacing=0;targetPerimeterSpacing=0;rounded=0;exitX=0;exitY=1;exitDx=0;exitDy=0;" edge="1" target="QAyq8AawGoxaaEf4JyG8-148" parent="1" source="QAyq8AawGoxaaEf4JyG8-149">
          <mxGeometry relative="1" as="geometry">
            <mxPoint x="-370" y="-330" as="sourcePoint" />
            <mxPoint x="-90" y="-345" as="targetPoint" />
          </mxGeometry>
        </mxCell>
        <mxCell id="QAyq8AawGoxaaEf4JyG8-157" value="" style="rounded=0;whiteSpace=wrap;html=1;labelBackgroundColor=none;labelBorderColor=none;fillColor=none;" vertex="1" parent="1">
          <mxGeometry x="-430" y="-760" width="1650" height="760" as="geometry" />
        </mxCell>
      </root>
    </mxGraphModel>
  </diagram>
</mxfile>
